<?xml version="1.0" standalone="no"?>
<!DOCTYPE svg PUBLIC "-//W3C//DTD SVG 20010904//EN"
 "http://www.w3.org/TR/2001/REC-SVG-20010904/DTD/svg10.dtd">
<svg version="1.0" xmlns="http://www.w3.org/2000/svg"
 width="192.000000pt" height="192.000000pt" viewBox="0 0 192.000000 192.000000"
 preserveAspectRatio="xMidYMid meet">
<metadata>
Created by potrace 1.16, written by Peter Selinger 2001-2019
</metadata>
<g transform="translate(0.000000,192.000000) scale(0.100000,-0.100000)"
fill="#000000" stroke="none">
<path d="M1101 1815 c-80 -36 -150 -65 -156 -65 -6 0 -78 27 -161 60 -219 89
-225 87 -319 -144 -36 -88 -67 -161 -69 -163 -2 -2 -72 -34 -157 -72 -124 -55
-158 -75 -177 -101 -12 -18 -22 -43 -22 -56 0 -13 29 -90 65 -170 36 -81 65
-152 65 -159 0 -7 -27 -79 -61 -160 -89 -217 -84 -228 148 -319 81 -32 152
-62 156 -66 4 -4 37 -71 71 -148 79 -177 87 -189 135 -203 40 -12 71 -2 290
99 l63 29 159 -64 c146 -59 161 -64 193 -53 18 6 42 20 52 31 11 12 47 89 81
173 45 111 67 154 85 164 12 7 85 40 160 73 203 91 207 104 107 329 l-65 145
63 159 c90 223 88 227 -155 326 -137 56 -154 66 -166 94 -68 162 -132 290
-151 302 -51 33 -82 28 -234 -41z m-110 -407 c-6 -45 -17 -88 -24 -95 -15 -16
-253 -137 -287 -147 -18 -5 -21 -9 -10 -13 33 -12 250 -136 260 -148 8 -10 8
-36 0 -97 -7 -46 -13 -84 -14 -85 -2 -2 -119 62 -262 142 l-259 144 0 45 0 44
300 150 c165 82 302 148 304 146 2 -1 -2 -40 -8 -86z m274 -392 c138 -76 255
-142 261 -147 6 -5 8 -25 5 -50 l-6 -41 -303 -149 -303 -148 6 57 c15 129 11
123 153 197 70 36 139 69 155 72 27 5 38 23 15 23 -20 0 -241 128 -256 147 -6
9 -10 24 -8 32 2 9 7 47 11 84 4 37 10 67 14 65 4 -2 119 -65 256 -142z"/>
</g>
</svg>
