<?xml version="1.0" standalone="no"?>
<!DOCTYPE svg PUBLIC "-//W3C//DTD SVG 20010904//EN"
 "http://www.w3.org/TR/2001/REC-SVG-20010904/DTD/svg10.dtd">
<svg version="1.0" xmlns="http://www.w3.org/2000/svg"
 width="384.000000pt" height="384.000000pt" viewBox="0 0 384.000000 384.000000"
 preserveAspectRatio="xMidYMid meet">
<metadata>
Created by potrace 1.16, written by Peter Selinger 2001-2019
</metadata>
<g transform="translate(0.000000,384.000000) scale(0.100000,-0.100000)"
fill="#000000" stroke="none">
<path d="M2450 3737 c-36 -14 -176 -74 -312 -135 l-247 -111 -297 120 c-258
103 -305 119 -354 119 -75 0 -135 -31 -175 -91 -16 -25 -83 -178 -148 -340
l-119 -296 -211 -93 c-345 -152 -410 -185 -445 -221 -40 -41 -67 -125 -57
-177 4 -21 65 -168 135 -328 l129 -290 -119 -296 c-105 -258 -120 -304 -120
-353 0 -66 34 -139 80 -173 16 -12 167 -77 337 -146 l308 -124 137 -308 c80
-179 149 -320 165 -337 40 -42 99 -67 162 -67 49 0 88 15 350 131 162 72 302
128 310 126 9 -3 144 -57 300 -121 197 -80 297 -116 324 -116 88 0 170 47 206
118 10 21 69 163 131 317 62 154 118 285 124 291 6 6 142 68 301 139 160 70
306 139 325 154 57 45 82 104 78 181 -3 58 -18 96 -132 352 l-129 286 122 300
c132 327 139 358 102 437 -40 87 -53 94 -477 264 l-232 93 -88 196 c-48 109
-109 243 -134 300 -54 121 -86 164 -140 192 -64 32 -116 34 -190 7z m-450
-769 c-1 -49 -38 -296 -48 -314 -6 -11 -21 -28 -34 -40 -35 -32 -452 -242
-543 -274 -79 -27 -79 -28 -45 -35 47 -10 102 -38 327 -168 153 -88 195 -117
207 -141 13 -28 12 -49 -7 -193 -11 -90 -23 -163 -27 -163 -7 0 -1042 579
-1053 590 -5 4 -3 45 4 90 l12 83 306 150 c168 82 437 214 596 293 160 78 293
143 298 143 4 1 7 -9 7 -21z m340 -831 c173 -96 407 -227 520 -290 l205 -115
-1 -54 c-2 -119 -3 -120 -112 -171 -53 -25 -321 -156 -596 -291 -274 -135
-502 -246 -507 -246 -12 0 -12 -6 11 166 24 175 24 175 53 201 34 32 504 269
572 288 l59 18 -64 22 c-71 24 -475 254 -496 282 -18 24 -17 70 2 222 18 141
21 154 31 148 5 -2 150 -83 323 -180z"/>
</g>
</svg>
