<?xml version="1.0" standalone="no"?>
<!DOCTYPE svg PUBLIC "-//W3C//DTD SVG 20010904//EN"
 "http://www.w3.org/TR/2001/REC-SVG-20010904/DTD/svg10.dtd">
<svg version="1.0" xmlns="http://www.w3.org/2000/svg"
 width="144.000000pt" height="144.000000pt" viewBox="0 0 144.000000 144.000000"
 preserveAspectRatio="xMidYMid meet">
<metadata>
Created by potrace 1.16, written by Peter Selinger 2001-2019
</metadata>
<g transform="translate(0.000000,144.000000) scale(0.100000,-0.100000)"
fill="#000000" stroke="none">
<path d="M821 1359 l-115 -50 -109 45 c-60 26 -119 46 -132 46 -42 0 -70 -35
-115 -147 -24 -59 -47 -113 -52 -119 -5 -7 -57 -33 -116 -59 -110 -48 -152
-81 -152 -117 0 -11 23 -72 51 -134 l50 -115 -45 -111 c-25 -61 -46 -121 -46
-134 0 -41 41 -71 160 -119 l115 -46 49 -112 c50 -114 82 -157 117 -157 10 0
71 23 134 51 l115 52 113 -47 c61 -25 122 -46 134 -46 40 0 71 42 118 160 l45
116 98 42 c195 85 197 89 122 257 l-52 115 46 115 c25 63 46 123 46 134 0 39
-39 68 -157 115 l-118 47 -49 112 c-50 116 -81 157 -119 157 -12 0 -73 -23
-136 -51z m-76 -291 c-3 -29 -9 -61 -11 -70 -5 -17 -191 -118 -218 -118 -9 0
-16 -4 -16 -10 0 -5 5 -10 10 -10 6 0 52 -24 101 -52 l91 -53 -6 -64 c-3 -35
-8 -66 -10 -69 -3 -2 -93 45 -200 104 -204 113 -216 124 -183 166 11 15 421
226 440 227 5 1 6 -23 2 -51z m206 -307 c181 -102 194 -112 197 -140 4 -36 26
-22 -256 -161 l-203 -100 6 47 c12 91 9 88 110 142 52 28 107 54 121 57 l27 7
-34 16 c-66 33 -169 93 -175 103 -5 8 4 138 10 138 1 0 90 -49 197 -109z"/>
</g>
</svg>
