<svg xmlns="http://www.w3.org/2000/svg" xmlns:xlink="http://www.w3.org/1999/xlink" width="512" height="512" viewBox="0 0 512 512"><defs><style>.a{clip-path:url(#b);}.b,.d{fill:#fff;}.c{fill:#071c40;}.d{font-size:374px;font-family:Lato-BlackItalic, Lato;font-weight:800;font-style:italic;}</style><clipPath id="b"><rect width="512" height="512"/></clipPath></defs><g id="a" class="a"><path class="b" d="M244.64,518.094l-62.573-60.426H95.081a30,30,0,0,1-30-30V344.7L5.4,287.058a30,30,0,0,1-.741-42.42l60.426-62.573V95.08a30,30,0,0,1,30-30h82.972L235.69,5.394a30,30,0,0,1,42.42-.74l62.572,60.425h86.987a30,30,0,0,1,30,30v82.972l59.685,57.637a30,30,0,0,1,.741,42.42l-60.426,62.573v86.985a30,30,0,0,1-30,30H344.7L287.06,517.353a30,30,0,0,1-42.42.741Z" transform="translate(111.726 -84.098) rotate(22)"/><g transform="translate(-220 8)"><path class="c" d="M167.559,494.817a30.032,30.032,0,0,1-27.424-17.806L105.626,399.5,26.96,367.719a29.975,29.975,0,0,1-16.577-39.055l30.307-75.012L7.783,179.743a29.974,29.974,0,0,1,15.2-39.608L100.5,105.626l31.784-78.667a29.83,29.83,0,0,1,11.232-13.764,29.945,29.945,0,0,1,27.822-2.812l75.013,30.307L320.255,7.782a29.991,29.991,0,0,1,39.608,15.2l34.51,77.509,78.666,31.783a29.976,29.976,0,0,1,16.577,39.054L459.31,246.346l32.907,73.909a29.977,29.977,0,0,1-15.2,39.609l-77.51,34.51-31.783,78.664A29.832,29.832,0,0,1,356.488,486.8a30.1,30.1,0,0,1-16.593,5.006,29.838,29.838,0,0,1-11.229-2.193L253.653,459.31l-73.91,32.907A29.779,29.779,0,0,1,167.559,494.817Zm94.415-298.179-5.049,40.2a14.827,14.827,0,0,0,1.029,7.947c1.055,2.42,3.226,4.528,6.451,6.265l49.742,28.611a62.891,62.891,0,0,0,9.724,4.207c3.473,1.178,7.185,2.279,11.033,3.272a112.559,112.559,0,0,0-22.627,7.48l-56.288,28.8a19.408,19.408,0,0,0-8.041,6.078,17.359,17.359,0,0,0-3.179,7.947l-5.236,40.206,161.381-79.1.748-5.8,2.057-16.83Zm-.837-89.783L99.943,186.143l-.748,5.61L97.138,208.77l141.559,79.1,5.236-40.2a14.272,14.272,0,0,0-1.122-7.948,13.493,13.493,0,0,0-6.359-6.078l-49.928-28.8a82.587,82.587,0,0,0-20.757-7.481,112.524,112.524,0,0,0,22.627-7.48l56.473-28.611a20.778,20.778,0,0,0,8.042-6.264,17.358,17.358,0,0,0,3.179-7.948l5.049-40.2Z" transform="translate(225.802 -2.21)"/><text class="d" transform="translate(295.825 321.378)"><tspan x="0" y="0">&lt;</tspan></text><text class="d" transform="translate(436.912 411.161)"><tspan x="0" y="0">&gt;</tspan></text></g></g></svg>