<?xml version="1.0" standalone="no"?>
<!DOCTYPE svg PUBLIC "-//W3C//DTD SVG 20010904//EN"
 "http://www.w3.org/TR/2001/REC-SVG-20010904/DTD/svg10.dtd">
<svg version="1.0" xmlns="http://www.w3.org/2000/svg"
 width="96.000000pt" height="96.000000pt" viewBox="0 0 96.000000 96.000000"
 preserveAspectRatio="xMidYMid meet">
<metadata>
Created by potrace 1.16, written by Peter Selinger 2001-2019
</metadata>
<g transform="translate(0.000000,96.000000) scale(0.100000,-0.100000)"
fill="#000000" stroke="none">
<path d="M544 906 l-70 -33 -70 28 c-76 31 -116 36 -132 17 -6 -7 -22 -44 -38
-83 -15 -38 -32 -75 -38 -81 -6 -6 -40 -23 -76 -39 -75 -32 -100 -51 -100 -75
0 -10 15 -51 34 -92 l33 -74 -28 -69 c-31 -77 -36 -117 -16 -133 6 -6 44 -22
82 -38 39 -15 75 -32 81 -38 6 -6 23 -40 39 -76 32 -75 51 -100 75 -100 10 0
51 16 92 35 l75 34 69 -29 c75 -32 116 -37 132 -17 6 6 23 46 40 87 31 80 34
82 143 129 75 33 80 53 36 150 l-36 80 29 68 c32 74 37 115 18 131 -7 6 -44
22 -83 38 -38 15 -75 32 -81 38 -6 6 -23 40 -39 76 -49 114 -59 118 -171 66z
m-51 -218 c-7 -29 -19 -38 -85 -72 l-76 -38 56 -30 c80 -42 85 -48 75 -96 l-8
-42 -125 71 c-69 38 -129 74 -133 78 -20 20 17 48 152 116 153 76 159 77 144
13z m204 -217 c46 -26 68 -45 68 -57 0 -14 -38 -38 -154 -97 l-153 -79 7 44
c4 24 9 46 12 50 2 5 37 24 78 44 l74 36 -57 30 c-79 41 -84 47 -76 96 l7 42
63 -35 c35 -20 94 -53 131 -74z"/>
</g>
</svg>
