<?xml version="1.0" standalone="no"?>
<!DOCTYPE svg PUBLIC "-//W3C//DTD SVG 20010904//EN"
 "http://www.w3.org/TR/2001/REC-SVG-20010904/DTD/svg10.dtd">
<svg version="1.0" xmlns="http://www.w3.org/2000/svg"
 width="256.000000pt" height="256.000000pt" viewBox="0 0 256.000000 256.000000"
 preserveAspectRatio="xMidYMid meet">
<metadata>
Created by potrace 1.16, written by Peter Selinger 2001-2019
</metadata>
<g transform="translate(0.000000,256.000000) scale(0.100000,-0.100000)"
fill="#000000" stroke="none">
<path d="M1453 2414 l-192 -87 -203 82 c-112 44 -216 81 -231 81 -40 0 -94
-27 -116 -59 -10 -14 -53 -114 -95 -221 -43 -107 -83 -200 -89 -206 -7 -6 -97
-48 -202 -94 -312 -136 -315 -144 -180 -449 47 -105 85 -195 85 -199 0 -5 -36
-97 -80 -205 -45 -109 -80 -210 -80 -229 0 -34 30 -93 59 -115 9 -7 107 -49
218 -93 111 -45 206 -87 211 -93 5 -7 46 -97 92 -200 89 -201 106 -229 150
-252 56 -29 95 -19 294 70 105 47 196 85 203 85 7 0 102 -36 210 -80 109 -44
208 -80 221 -80 33 0 84 24 109 51 12 13 58 114 103 224 44 110 86 205 93 212
7 6 95 48 197 93 214 94 224 100 250 143 36 58 27 99 -65 305 -47 105 -85 195
-85 201 0 6 37 102 81 215 71 177 81 208 75 242 -14 71 -59 102 -276 188 -107
43 -200 83 -206 89 -6 7 -48 95 -93 197 -95 214 -101 224 -144 250 -60 37
-103 28 -314 -66z m-132 -533 c-12 -78 -23 -116 -36 -132 -22 -23 -290 -161
-369 -189 l-49 -18 39 -12 c44 -14 306 -163 330 -188 13 -12 15 -28 10 -71 -3
-31 -9 -81 -12 -111 -3 -30 -9 -58 -13 -61 -3 -3 -163 82 -356 190 l-350 197
3 35 c2 19 4 44 5 55 2 15 93 64 397 216 217 108 400 197 406 197 8 1 6 -33
-5 -108z m720 -728 c4 -4 5 -32 2 -62 l-6 -54 -171 -82 c-94 -45 -276 -135
-403 -198 -265 -131 -241 -133 -222 14 6 46 17 94 25 106 14 22 269 160 366
197 l58 22 -38 13 c-50 18 -304 166 -326 190 -16 17 -16 28 -5 122 6 57 13
109 15 116 2 10 682 -361 705 -384z"/>
</g>
</svg>
