<?xml version="1.0" standalone="no"?>
<!DOCTYPE svg PUBLIC "-//W3C//DTD SVG 20010904//EN"
 "http://www.w3.org/TR/2001/REC-SVG-20010904/DTD/svg10.dtd">
<svg version="1.0" xmlns="http://www.w3.org/2000/svg"
 width="72.000000pt" height="72.000000pt" viewBox="0 0 72.000000 72.000000"
 preserveAspectRatio="xMidYMid meet">
<metadata>
Created by potrace 1.16, written by Peter Selinger 2001-2019
</metadata>
<g transform="translate(0.000000,72.000000) scale(0.100000,-0.100000)"
fill="#000000" stroke="none">
<path d="M416 682 l-58 -26 -47 18 c-99 39 -103 37 -140 -56 -21 -53 -26 -58
-81 -81 -80 -35 -86 -49 -51 -123 l28 -60 -23 -53 c-36 -82 -34 -88 45 -123
66 -29 70 -34 97 -92 34 -72 48 -77 125 -43 l54 23 58 -23 c32 -13 67 -21 77
-18 10 3 30 33 45 69 25 60 30 65 88 92 73 34 80 53 44 129 l-23 50 25 63 c30
77 26 86 -56 119 -58 23 -62 27 -86 83 -35 79 -49 85 -121 52z m-45 -154 c-5
-27 -17 -38 -63 -63 l-57 -31 50 -27 c44 -25 49 -32 49 -63 0 -19 -3 -34 -6
-34 -3 0 -50 25 -105 55 -72 41 -97 60 -92 71 5 12 203 122 224 123 4 1 4 -14
0 -31z m98 -144 c47 -26 91 -51 98 -56 24 -19 -2 -41 -108 -92 l-109 -53 0 33
c0 30 5 35 60 63 l60 30 -50 27 c-45 24 -50 31 -50 61 0 18 3 33 6 33 4 0 46
-21 93 -46z"/>
</g>
</svg>
