<?xml version="1.0" standalone="no"?>
<!DOCTYPE svg PUBLIC "-//W3C//DTD SVG 20010904//EN"
 "http://www.w3.org/TR/2001/REC-SVG-20010904/DTD/svg10.dtd">
<svg version="1.0" xmlns="http://www.w3.org/2000/svg"
 width="128.000000pt" height="128.000000pt" viewBox="0 0 128.000000 128.000000"
 preserveAspectRatio="xMidYMid meet">
<metadata>
Created by potrace 1.16, written by Peter Selinger 2001-2019
</metadata>
<g transform="translate(0.000000,128.000000) scale(0.100000,-0.100000)"
fill="#000000" stroke="none">
<path d="M388 1238 c-28 -10 -43 -37 -93 -165 l-27 -71 -97 -42 c-160 -70
-166 -84 -98 -232 l44 -94 -42 -108 c-24 -60 -40 -117 -38 -127 8 -30 46 -54
147 -94 l93 -37 43 -97 c50 -111 73 -141 109 -141 14 0 70 20 123 44 l97 44
93 -39 c155 -64 167 -59 232 104 l39 95 96 43 c111 49 141 72 141 108 0 14
-20 70 -44 123 l-44 98 39 92 c64 154 56 171 -103 233 l-96 38 -43 96 c-71
160 -85 166 -225 101 -98 -45 -106 -46 -160 -24 -117 49 -159 61 -186 52z
m274 -285 c-2 -27 -9 -56 -14 -66 -8 -16 -121 -80 -182 -102 l-29 -11 54 -28
c75 -38 134 -80 133 -94 -1 -7 -2 -27 -3 -44 -3 -65 -7 -65 -190 38 -165 93
-172 98 -169 125 3 27 17 36 203 128 110 55 201 100 201 100 1 1 -1 -20 -4
-46z m191 -282 c165 -91 168 -94 165 -124 -3 -29 -11 -35 -204 -128 l-201 -97
5 47 c2 25 9 54 14 64 5 10 54 40 109 67 l99 48 -43 21 c-23 11 -64 34 -90 51
-43 27 -47 33 -47 67 0 45 10 85 19 81 4 -2 82 -45 174 -97z"/>
</g>
</svg>
