<svg xmlns="http://www.w3.org/2000/svg" xmlns:xlink="http://www.w3.org/1999/xlink" width="180" height="35" viewBox="0 0 180 35"><defs><style>.a{clip-path:url(#b);}.b,.c{fill:#fff;}.b{font-size:30px;font-family:Lato-BlackItalic, Lato;font-weight:800;font-style:italic;}</style><clipPath id="b"><rect width="180" height="35"/></clipPath></defs><g id="a" class="a"><g transform="translate(1)"><text class="b" transform="translate(3 30)"><tspan x="0" y="0">CodeLearn</tspan></text><g transform="translate(-90 -4)"><path class="c" d="M10.16,30a2.39,2.39,0,0,1-2.183-1.417L6.055,24.262,2.238,22.72A3,3,0,0,1,.581,18.815l1.45-3.589-1.823-4.1a2.39,2.39,0,0,1,1.21-3.152L5.737,6.054,7.279,2.238A3,3,0,0,1,11.184.581l3.589,1.45,4.1-1.823a2.386,2.386,0,0,1,3.153,1.211l1.923,4.319,3.816,1.542a3,3,0,0,1,1.658,3.905l-1.451,3.59,1.823,4.095a2.387,2.387,0,0,1-1.21,3.153l-4.319,1.923-1.542,3.816a3,3,0,0,1-3.905,1.658l-3.591-1.451-4.1,1.823A2.37,2.37,0,0,1,10.16,30ZM15.718,11.93,15.408,14.4a.91.91,0,0,0,.063.489.848.848,0,0,0,.4.385l3.059,1.759a3.846,3.846,0,0,0,.6.259c.211.072.44.139.679.2a6.937,6.937,0,0,0-1.391.461l-3.461,1.77a1.188,1.188,0,0,0-.494.374,1.066,1.066,0,0,0-.2.489l-.321,2.472L24.263,18.2l.046-.356.127-1.035ZM15.6,6.367h0L5.689,11.244l-.046.345-.127,1.047L14.222,17.5l.322-2.472a.871.871,0,0,0-.069-.489.827.827,0,0,0-.391-.374l-3.071-1.77a5.046,5.046,0,0,0-1.276-.46,6.924,6.924,0,0,0,1.391-.461L14.6,9.714a1.273,1.273,0,0,0,.494-.385,1.066,1.066,0,0,0,.2-.489L15.6,6.368Z" transform="translate(234.157 6.158)"/></g></g></g></svg>